<svg xmlns="http://www.w3.org/2000/svg" viewBox="0 0 40 40"><path fill="#b6dcfe" d="M10.5,10.5h27v27h-27V10.5z"/><path fill="#4788c7" d="M37,11v26H11V11H37 M38,10H10v28h28V10L38,10z"/><path fill="#dff0fe" d="M6.5,6.5h27v27h-27V6.5z"/><path fill="#4788c7" d="M33,7v26H7V7H33 M34,6H6v28h28V6L34,6z"/><path fill="#fff" d="M2.5,2.5h27v27h-27V2.5z"/><path fill="#4788c7" d="M29,3v26H3V3H29 M30,2H2v28h28V2L30,2z"/><path fill="#dff0fe" d="M6,6h20v17H6V6z"/><path fill="#98ccfd" d="M19,14l-3,3l6,6h4v-2L19,14z"/><path fill="#fff" d="M21,8c-1.105,0-2,0.895-2,2s0.895,2,2,2s2-0.895,2-2S22.105,8,21,8z"/><path fill="#b6dcfe" d="M22,23H6v-4l6-6L22,23z"/></svg>